<?xml version="1.0" encoding="UTF-8"?>
<svg xmlns="http://www.w3.org/2000/svg" xmlns:xlink="http://www.w3.org/1999/xlink" width="50pt" height="50pt" viewBox="0 0 50 50" version="1.1">
<g id="surface1">
<path style=" stroke:none;fill-rule:nonzero;fill:rgb(0%,0%,0%);fill-opacity:1;" d="M 25 0 C 23.421875 0 22.050781 0.875 21.375 2.28125 C 16.675781 2.9375 11.804688 4.941406 7.875 7.78125 C 7.464844 7.574219 6.996094 7.46875 6.5 7.46875 C 5.234375 7.46875 3.828125 8.1875 2.71875 9.40625 C 1.078125 11.207031 0.667969 13.332031 1.59375 14.75 C 0.554688 16.753906 0 18.886719 0 21 C 0 24.476563 1.929688 27 4.59375 27 L 45 27 C 46.867188 27 50 26.222656 50 21 C 50 16.5625 46.835938 11.765625 41.40625 7.875 C 41.523438 6.382813 40.519531 4.746094 38.65625 3.65625 C 37.667969 3.078125 36.597656 2.78125 35.625 2.78125 C 34.671875 2.78125 33.839844 3.070313 33.25 3.625 C 31.691406 3.070313 30.117188 2.613281 28.625 2.3125 C 27.953125 0.882813 26.59375 0 25 0 Z M 35.625 4.78125 C 35.65625 4.78125 35.6875 4.78125 35.71875 4.78125 C 35.839844 4.785156 35.964844 4.792969 36.09375 4.8125 C 36.117188 4.816406 36.132813 4.808594 36.15625 4.8125 C 36.464844 4.867188 36.792969 4.980469 37.125 5.125 C 37.300781 5.203125 37.480469 5.273438 37.65625 5.375 C 38.992188 6.15625 39.730469 7.378906 39.3125 8.09375 C 39.261719 8.179688 39.199219 8.25 39.125 8.3125 C 39.113281 8.320313 39.105469 8.335938 39.09375 8.34375 C 39.027344 8.394531 38.957031 8.433594 38.875 8.46875 C 38.851563 8.480469 38.835938 8.492188 38.8125 8.5 C 38.628906 8.570313 38.394531 8.59375 38.15625 8.59375 C 38.125 8.59375 38.09375 8.59375 38.0625 8.59375 C 37.9375 8.589844 37.820313 8.585938 37.6875 8.5625 C 37.667969 8.558594 37.644531 8.566406 37.625 8.5625 C 37.488281 8.539063 37.332031 8.480469 37.1875 8.4375 C 37.007813 8.382813 36.808594 8.332031 36.625 8.25 C 36.457031 8.175781 36.292969 8.066406 36.125 7.96875 C 35.957031 7.871094 35.804688 7.765625 35.65625 7.65625 C 35.507813 7.546875 35.375 7.429688 35.25 7.3125 C 34.496094 6.609375 34.15625 5.816406 34.46875 5.28125 C 34.566406 5.113281 34.746094 4.988281 34.9375 4.90625 C 35.132813 4.824219 35.363281 4.78125 35.625 4.78125 Z M 17.03125 9 C 18.003906 8.980469 19.132813 9.667969 19.90625 10.84375 C 20.9375 12.414063 20.9375 14.242188 19.875 14.9375 C 18.8125 15.632813 17.09375 14.945313 16.0625 13.375 C 15.03125 11.804688 15.0625 9.945313 16.125 9.25 C 16.390625 9.074219 16.707031 9.007813 17.03125 9 Z M 6.5 9.46875 C 6.632813 9.46875 6.761719 9.492188 6.875 9.53125 C 6.984375 9.570313 7.105469 9.609375 7.1875 9.6875 C 7.800781 10.246094 7.445313 11.636719 6.40625 12.78125 C 6.21875 12.984375 6.011719 13.152344 5.8125 13.3125 C 5.625 13.460938 5.4375 13.582031 5.25 13.6875 C 5.238281 13.695313 5.230469 13.710938 5.21875 13.71875 C 5.199219 13.730469 5.175781 13.738281 5.15625 13.75 C 5.113281 13.773438 5.074219 13.792969 5.03125 13.8125 C 4.9375 13.859375 4.84375 13.90625 4.75 13.9375 C 4.667969 13.964844 4.578125 13.980469 4.5 14 C 4.355469 14.035156 4.222656 14.0625 4.09375 14.0625 C 4.0625 14.0625 4.03125 14.066406 4 14.0625 C 3.90625 14.054688 3.800781 14.027344 3.71875 14 C 3.605469 13.960938 3.492188 13.921875 3.40625 13.84375 C 3.253906 13.703125 3.164063 13.507813 3.125 13.28125 C 3.105469 13.167969 3.117188 13.035156 3.125 12.90625 C 3.167969 12.265625 3.535156 11.464844 4.1875 10.75 C 4.378906 10.542969 4.578125 10.378906 4.78125 10.21875 C 4.96875 10.070313 5.15625 9.949219 5.34375 9.84375 C 5.355469 9.835938 5.363281 9.820313 5.375 9.8125 C 5.675781 9.648438 5.980469 9.542969 6.25 9.5 C 6.335938 9.488281 6.421875 9.46875 6.5 9.46875 Z M 37.90625 14.90625 C 38.957031 14.90625 39.8125 16.140625 39.8125 17.6875 C 39.8125 19.234375 38.957031 20.5 37.90625 20.5 C 36.855469 20.5 36 19.234375 36 17.6875 C 36 16.140625 36.855469 14.90625 37.90625 14.90625 Z M 5.625 29 L 12.25 47.4375 C 12.394531 47.832031 12.765625 48.09375 13.1875 48.09375 L 18.125 48.09375 L 15.03125 32.1875 C 14.925781 31.644531 15.269531 31.136719 15.8125 31.03125 C 16.351563 30.925781 16.863281 31.269531 16.96875 31.8125 L 20.1875 48.09375 L 24 48.09375 L 24 32 C 24 31.445313 24.449219 31 25 31 C 25.550781 31 26 31.445313 26 32 L 26 48.09375 L 29.75 48.09375 L 33.03125 31.8125 C 33.140625 31.273438 33.648438 30.921875 34.1875 31.03125 C 34.726563 31.140625 35.078125 31.648438 34.96875 32.1875 L 31.78125 48.09375 L 36.8125 48.09375 C 37.234375 48.09375 37.609375 47.832031 37.75 47.4375 L 44.375 29 Z "/>
</g>
</svg>
